<svg width="68" height="68" viewBox="0 0 68 68" fill="none" xmlns="http://www.w3.org/2000/svg">
<path d="M57.2727 0H10.6061C4.7485 0 0 4.7485 0 10.6061V57.2727C0 63.1303 4.7485 67.8788 10.6061 67.8788H57.2727C63.1303 67.8788 67.8788 63.1303 67.8788 57.2727V10.6061C67.8788 4.7485 63.1303 0 57.2727 0Z" fill="#5F677E"/>
<path d="M33.9393 19.5151C38.606 19.5151 39.2423 19.5151 41.1514 19.5151C42.8484 19.5151 43.6969 19.9393 44.3333 20.1514C45.1817 20.5757 45.8181 20.7878 46.4545 21.4242C47.0908 22.0605 47.5151 22.6969 47.7272 23.5454C47.9393 24.1817 48.1514 25.0302 48.3636 26.7272C48.3636 28.6363 48.3636 29.0605 48.3636 33.9393C48.3636 38.8181 48.3636 39.2423 48.3636 41.1514C48.3636 42.8484 47.9393 43.6969 47.7272 44.3333C47.3029 45.1817 47.0908 45.8181 46.4545 46.4545C45.8181 47.0908 45.1817 47.5151 44.3333 47.7272C43.6969 47.9393 42.8484 48.1514 41.1514 48.3636C39.2423 48.3636 38.8181 48.3636 33.9393 48.3636C29.0605 48.3636 28.6363 48.3636 26.7272 48.3636C25.0302 48.3636 24.1817 47.9393 23.5454 47.7272C22.6969 47.3029 22.0605 47.0908 21.4242 46.4545C20.7878 45.8181 20.3636 45.1817 20.1514 44.3333C19.9393 43.6969 19.7272 42.8484 19.5151 41.1514C19.5151 39.2423 19.5151 38.8181 19.5151 33.9393C19.5151 29.0605 19.5151 28.6363 19.5151 26.7272C19.5151 25.0302 19.9393 24.1817 20.1514 23.5454C20.5757 22.6969 20.7878 22.0605 21.4242 21.4242C22.0605 20.7878 22.6969 20.3636 23.5454 20.1514C24.1817 19.9393 25.0302 19.7272 26.7272 19.5151C28.6363 19.5151 29.2726 19.5151 33.9393 19.5151ZM33.9393 16.3333C29.0605 16.3333 28.6363 16.3333 26.7272 16.3333C24.8181 16.3333 23.5454 16.7575 22.4848 17.1817C21.4242 17.606 20.3636 18.2423 19.3029 19.3029C18.2423 20.3636 17.8181 21.212 17.1817 22.4848C16.7575 23.5454 16.5454 24.8181 16.3333 26.7272C16.3333 28.6363 16.3333 29.2726 16.3333 33.9393C16.3333 38.8181 16.3333 39.2423 16.3333 41.1514C16.3333 43.0605 16.7575 44.3333 17.1817 45.3939C17.606 46.4545 18.2423 47.5151 19.3029 48.5757C20.3636 49.6363 21.212 50.0605 22.4848 50.6969C23.5454 51.1211 24.8181 51.3332 26.7272 51.5454C28.6363 51.5454 29.2726 51.5454 33.9393 51.5454C38.606 51.5454 39.2423 51.5454 41.1514 51.5454C43.0605 51.5454 44.3333 51.1211 45.3939 50.6969C46.4545 50.2726 47.5151 49.6363 48.5757 48.5757C49.6363 47.5151 50.0605 46.6666 50.6969 45.3939C51.1211 44.3333 51.3332 43.0605 51.5454 41.1514C51.5454 39.2423 51.5454 38.606 51.5454 33.9393C51.5454 29.2726 51.5454 28.6363 51.5454 26.7272C51.5454 24.8181 51.1211 23.5454 50.6969 22.4848C50.2726 21.4242 49.6363 20.3636 48.5757 19.3029C47.5151 18.2423 46.6666 17.8181 45.3939 17.1817C44.3333 16.7575 43.0605 16.5454 41.1514 16.3333C39.2423 16.3333 38.8181 16.3333 33.9393 16.3333Z" fill="white"/>
<path d="M33.9393 24.8181C28.8484 24.8181 24.8181 28.8484 24.8181 33.9393C24.8181 39.0302 28.8484 43.0605 33.9393 43.0605C39.0302 43.0605 43.0605 39.0302 43.0605 33.9393C43.0605 28.8484 39.0302 24.8181 33.9393 24.8181ZM33.9393 39.8787C30.7575 39.8787 27.9999 37.3333 27.9999 33.9393C27.9999 30.7575 30.5454 27.9999 33.9393 27.9999C37.1211 27.9999 39.8787 30.5454 39.8787 33.9393C39.8787 37.1211 37.1211 39.8787 33.9393 39.8787Z" fill="white"/>
<path d="M43.2726 26.7272C44.4442 26.7272 45.3939 25.7775 45.3939 24.606C45.3939 23.4345 44.4442 22.4848 43.2726 22.4848C42.1011 22.4848 41.1514 23.4345 41.1514 24.606C41.1514 25.7775 42.1011 26.7272 43.2726 26.7272Z" fill="white"/>
</svg>
