<svg width="68" height="68" viewBox="0 0 68 68" fill="none" xmlns="http://www.w3.org/2000/svg">
<path d="M57.2727 0H10.6061C4.7485 0 0 4.7485 0 10.6061V57.2727C0 63.1303 4.7485 67.8788 10.6061 67.8788H57.2727C63.1303 67.8788 67.8788 63.1303 67.8788 57.2727V10.6061C67.8788 4.7485 63.1303 0 57.2727 0Z" fill="#5F677E"/>
<path d="M24.6061 50.9091H17.394V28.2122H24.6061V50.9091ZM21 25.0303C18.6667 25.0303 16.9697 23.3334 16.9697 21C16.9697 18.6667 18.8788 16.9697 21 16.9697C23.3334 16.9697 25.0303 18.6667 25.0303 21C25.0303 23.3334 23.3334 25.0303 21 25.0303ZM50.9091 50.9091H43.697V38.6061C43.697 35 42.2121 33.9394 40.0909 33.9394C37.9697 33.9394 35.8485 35.6364 35.8485 38.8182V50.9091H28.6364V28.2122H35.4243V31.394C36.0606 29.9091 38.6061 27.5758 42.2121 27.5758C46.2424 27.5758 50.4849 29.9091 50.4849 36.9091V50.9091H50.9091Z" fill="white"/>
</svg>
